# xmcd
#
# Track frame offsets: 
#        300
#        27743
#        45061
#        68284
#        83377
#        114152
#        136096
#        153786
#        177684
#        198844
#
# Disc length: 3053 seconds
#
# Revision: 1
# Processed by: cddbd v1.5.2PL0 Copyright (c) Steve Scherf et al.
# Submitted via: ExactAudioCopy v1.0b1
#
DISCID=6b0be90a
DTITLE=Jimmy Dawkins - American Roots: Blues
DYEAR=2002
DGENRE=Chicago Blues
TTITLE0=Lonesome Blues
TTITLE1=Begging Business
TTITLE2=Can't Hide My Love
TTITLE3=Down, Down Baby
TTITLE4=Me, My Gitar and the Blues
TTITLE5=Cold as Hell
TTITLE6=Right to Quit You
TTITLE7=Lonely Guitar Man
TTITLE8=Know Your Lover
TTITLE9=Down With the Blues
EXTD=YEAR: 2002
EXTT0=
EXTT1=
EXTT2=
EXTT3=
EXTT4=
EXTT5=
EXTT6=
EXTT7=
EXTT8=
EXTT9=
PLAYORDER=
